<?xml version="1.0" standalone="no"?>
<!DOCTYPE svg PUBLIC "-//W3C//DTD SVG 20010904//EN"
 "http://www.w3.org/TR/2001/REC-SVG-20010904/DTD/svg10.dtd">
<svg version="1.0" xmlns="http://www.w3.org/2000/svg"
 width="300.000000pt" height="300.000000pt" viewBox="0 0 300.000000 300.000000"
 preserveAspectRatio="xMidYMid meet">
<g transform="translate(0.000000,300.000000) scale(0.100000,-0.100000)"
fill="#000000" stroke="none">
<path d="M1369 2996 c-2 -2 -32 -7 -65 -10 -135 -13 -383 -93 -504 -161 -34
-19 -64 -35 -67 -35 -8 0 -163 -109 -196 -139 -194 -171 -328 -353 -422 -576
-32 -75 -86 -270 -100 -360 -18 -118 -13 -371 10 -485 62 -315 201 -576 425
-798 208 -207 459 -339 763 -403 109 -23 361 -32 482 -16 141 17 338 78 478
148 291 143 548 407 686 704 36 76 97 271 116 365 33 164 25 476 -16 615 -78
269 -152 422 -287 590 -186 230 -415 390 -697 485 -63 21 -115 37 -115 35 0
-3 -12 0 -27 6 -15 6 -46 12 -68 15 -22 3 -47 8 -55 10 -19 7 -334 16 -341 10z"/>
</g>
</svg>
